Coordinates
version=1
nRows=19
nColumns=24
inDegrees=yes

Units are S.I. units (second, meters, Newtons, ...)
Angles are in degrees.

endheader
time	pelvis_tilt	pelvis_list	pelvis_rotation	pelvis_tx	pelvis_ty	pelvis_tz	hip_flexion_r	hip_adduction_r	hip_rotation_r	knee_angle_r	ankle_angle_r	subtalar_angle_r	mtp_angle_r	hip_flexion_l	hip_adduction_l	hip_rotation_l	knee_angle_l	ankle_angle_l	subtalar_angle_l	mtp_angle_l	lumbar_extension	lumbar_bending	lumbar_rotation
      0.56600000	     -1.78205078	      3.41500514	     12.48175547	     -0.81963679	      0.87162969	      0.27436672	     32.95911646	     -5.33698883	    -10.86821070	     -8.97598460	      8.02617771	     -0.09525875	      2.96653616	    -20.39338377	      2.69035473	      4.27487195	    -11.52948474	     14.03477843	      5.64833012	     18.87986048	     -4.40325151	     -5.95377755	    -11.35689282
      0.57016667	     -1.73817689	      3.27164577	     12.52420240	     -0.81322227	      0.87098381	      0.27458482	     32.90201622	     -5.10242972	    -10.79428177	     -9.53684741	      7.76626175	     -0.50703173	      2.92349429	    -20.46860051	      2.40889359	      4.15479264	    -12.23995471	     13.79191094	      5.75086282	     18.95819386	     -4.33688304	     -5.71082697	    -11.31161115
      0.57433333	     -1.69429962	      3.11093592	     12.56479206	     -0.80675197	      0.87038318	      0.27481472	     32.82153350	     -4.84484183	    -10.72358656	    -10.06290417	      7.47279846	     -0.88272450	      2.90846074	    -20.53066327	      2.10971635	      4.03802398	    -12.96316373	     13.48236025	      5.83584093	     19.07920846	     -4.26109280	     -5.43767476	    -11.25301737
      0.57850000	     -1.59294221	      2.92910643	     12.57388086	     -0.80019584	      0.86985642	      0.27511545	     32.67561758	     -4.53346490	    -10.64589094	    -10.58541875	      7.13928141	     -1.33405115	      2.95206927	    -20.63186973	      1.76696799	      3.75198324	    -13.73113800	     13.20625415	      6.13632426	     19.75705534	     -4.24659948	     -5.13495275	    -11.17861006
      0.58266667	     -1.57248664	      2.77653811	     12.59241890	     -0.79366789	      0.86929140	      0.27540308	     32.60507533	     -4.26502845	    -10.51724150	    -11.08933265	      6.62750578	     -1.85892659	      2.98058580	    -20.65043079	      1.49635559	      3.69325182	    -14.49260047	     12.82496339	      6.04913462	     20.01146114	     -4.14397705	     -4.89083815	    -11.08930425
      0.58683333	     -1.53329947	      2.58424900	     12.60020513	     -0.78705395	      0.86877924	      0.27569981	     32.49775375	     -3.94895312	    -10.41810903	    -11.56055466	      6.12744806	     -2.25751539	      3.01868307	    -20.67488427	      1.17529910	      3.55963989	    -15.26416640	     12.35447549	      6.08205225	     20.24102562	     -4.03186050	     -4.56429881	    -10.99733340
      0.59100000	     -1.45306060	      2.38661126	     12.58161187	     -0.78042897	      0.86831406	      0.27609399	     32.35303306	     -3.59192811	    -10.24517409	    -12.03341110	      5.51880658	     -2.94792278	      3.12013399	    -20.70828360	      0.83491345	      3.32629078	    -16.11226790	     11.99351216	      6.20312120	     20.70204316	     -3.99731853	     -4.27043806	    -10.86327873
      0.59516667	     -1.41427296	      2.17497685	     12.56005846	     -0.77374762	      0.86784890	      0.27647358	     32.24867556	     -3.23173876	    -10.08709800	    -12.49991721	      4.86626501	     -3.52510549	      3.24844565	    -20.68685047	      0.49799408	      3.14241863	    -16.96174265	     11.49546981	      6.24347163	     21.22507813	     -3.89104358	     -3.93939021	    -10.72462514
      0.59933333	     -1.37293719	      1.95983675	     12.52430482	     -0.76705329	      0.86741109	      0.27688624	     32.14667119	     -2.85755494	     -9.89853628	    -12.97148954	      4.18736526	     -4.13198541	      3.42579933	    -20.64983082	      0.16037209	      2.94706647	    -17.84316556	     10.96470139	      6.28371450	     21.88429327	     -3.79279489	     -3.60721256	    -10.57133360
      0.60350000	     -1.31967269	      1.69979830	     12.51772713	     -0.76029526	      0.86701230	      0.27724129	     32.04493182	     -2.47167156	     -9.86551669	    -13.48084646	      3.57611251	     -4.51507492	      4.94487852	    -20.57248867	     -0.25224690	      2.67610984	    -18.79821918	     10.39753536	      6.42562267	     27.09716975	     -3.66963365	     -3.19878286	    -10.46223879
      0.60766667	     -1.32076256	      1.53821600	     12.42040173	     -0.75359440	      0.86657714	      0.27771242	     32.04338865	     -2.13868336	     -9.59084775	    -14.07498083	      2.87139600	     -5.09535388	      4.94179190	    -20.49646249	     -0.48224887	      2.56735989	    -19.66569004	      9.68553849	      6.21191426	     27.19265497	     -3.54048127	     -2.93967089	    -10.30132192
      0.61183333	     -1.30998839	      1.31312509	     12.35091143	     -0.74686059	      0.86617826	      0.27817565	     32.02388110	     -1.75532342	     -9.37776933	    -14.65172396	      2.17688554	     -5.67333750	      4.96492714	    -20.35999272	     -0.80776239	      2.38600867	    -20.65790819	      9.04887140	      6.19247146	     27.36337014	     -3.39928802	     -2.59518292	    -10.11488481
      0.61600000	     -1.30796104	      1.08810604	     12.26929947	     -0.74011961	      0.86579567	      0.27866123	     32.03642038	     -1.37227934	     -9.15599899	    -15.28290207	      1.52068571	     -6.21574093	      5.00966284	    -20.19248829	     -1.12919206	      2.19298424	    -21.67754558	      8.36685349	      6.18204216	     27.59451689	     -3.25060170	     -2.25121757	     -9.93007424
      0.62016667	     -1.32059332	      0.86657581	     12.17583651	     -0.73338250	      0.86541864	      0.27915618	     32.09112159	     -0.99737101	     -8.93011481	    -15.97513344	      0.91022806	     -6.71536140	      5.06521691	    -19.98180001	     -1.43927480	      1.99678829	    -22.74158277	      7.64672801	      6.16097278	     27.86569293	     -3.08784708	     -1.91321997	     -9.73835403
      0.62433333	     -1.33904551	      0.64277384	     12.07202939	     -0.72664971	      0.86505575	      0.27966789	     32.17481716	     -0.62119886	     -8.70022942	    -16.72219765	      0.35410601	     -7.18116112	      5.12660175	    -19.73749515	     -1.74705097	      1.80661340	    -23.85014164	      6.90340759	      6.12944867	     28.16554413	     -2.91891028	     -1.56745301	     -9.54295333
      0.62850000	     -1.36348286	      0.41814813	     11.96201046	     -0.71993121	      0.86470537	      0.28019836	     32.28994669	     -0.24695498	     -8.46647635	    -17.53048782	     -0.13232762	     -7.60989997	      5.19216987	    -19.45031522	     -2.05693696	      1.60163415	    -25.01667603	      6.13982877	      6.11478822	     28.50358582	     -2.75142252	     -1.22586302	     -9.34321534
      0.63266667	     -1.39365851	      0.19556485	     11.84475850	     -0.71322078	      0.86436744	      0.28073907	     32.43390529	      0.12228399	     -8.23634220	    -18.39743052	     -0.54227986	     -7.99565889	      5.25529455	    -19.12574059	     -2.36536682	      1.38318969	    -26.23021463	      5.31293869	      6.09150356	     28.87090098	     -2.57638329	     -0.88561318	     -9.14502746
      0.63683333	     -1.39440404	     -0.03354472	     11.71846374	     -0.70647146	      0.86411793	      0.28125696	     32.55743904	      0.49598414	     -8.04027540	    -19.31293774	     -0.76923042	     -8.18258024	      5.27949982	    -18.83190366	     -2.67572449	      1.19978855	    -27.42047234	      4.37872313	      5.99079053	     29.02804138	     -2.43941700	     -0.50241102	     -9.03105466
      0.64100000	     -1.45768210	     -0.23720122	     11.59229676	     -0.69984323	      0.86376822	      0.28184715	     32.77855111	      0.84286049	     -7.78967455	    -20.28434646	     -1.09414859	     -8.58665414	      5.31537565	    -18.38863307	     -2.96538676	      0.97465681	    -28.76940048	      3.59274103	      6.00309579	     29.37814430	     -2.24417776	     -0.21361159	     -8.77070465
